<svg xmlns="http://www.w3.org/2000/svg" version="1.1" xmlns:xlink="http://www.w3.org/1999/xlink" width="80" height="80"><svg width="80" height="80" viewBox="0 0 80 80" fill="none" xmlns="http://www.w3.org/2000/svg">
<path d="M80 40C80 62.0911 62.0911 80 40 80C17.9089 80 0 62.0911 0 40C0 17.9089 17.9089 0 40 0C62.0911 0 80 17.9089 80 40Z" fill="#FFCC4D"></path>
<path d="M40 46.6667C31.9489 46.6667 26.6067 45.7289 20 44.4444C18.4911 44.1533 15.5556 44.4444 15.5556 48.8889C15.5556 57.7778 25.7667 68.8889 40 68.8889C54.2311 68.8889 64.4444 57.7778 64.4444 48.8889C64.4444 44.4444 61.5089 44.1511 60 44.4444C53.3933 45.7289 48.0511 46.6667 40 46.6667Z" fill="#664500"></path>
<path d="M20 48.8889C20 48.8889 26.6667 51.1111 40 51.1111C53.3333 51.1111 60 48.8889 60 48.8889C60 48.8889 55.5556 57.7778 40 57.7778C24.4444 57.7778 20 48.8889 20 48.8889Z" fill="white"></path>
<path d="M34.8489 9.80667L24.7556 11.5867L19.5556 2.13556C18.9822 1.09333 17.8044 0.535556 16.64 0.74C15.4689 0.946667 14.5578 1.87556 14.3756 3.04889L12.72 13.7089L2.62667 15.4889C1.43778 15.6978 0.52 16.6556 0.357778 17.8533C0.195556 19.0511 0.826667 20.2156 1.92 20.7356L10.9644 25.0289L9.30222 35.7222C9.11778 36.9133 9.72222 38.0867 10.7978 38.6311C11.1956 38.8311 11.6222 38.9267 12.0467 38.9267C12.7733 38.9267 13.4911 38.6422 14.0267 38.1L21.8311 30.1867L31.8711 34.9533C32.96 35.4689 34.2578 35.2267 35.0844 34.3489C35.9111 33.4711 36.0756 32.1622 35.4956 31.1067L30.2778 21.6222L37.3111 14.4933C38.16 13.6333 38.3533 12.3222 37.7933 11.2511C37.2289 10.18 36.0311 9.6 34.8489 9.80667ZM45.1511 9.80667L55.2444 11.5867L60.4444 2.13556C61.0178 1.09333 62.1956 0.535556 63.36 0.74C64.5289 0.946667 65.44 1.87556 65.6222 3.04889L67.2778 13.7089L77.3711 15.4889C78.5622 15.6978 79.48 16.6533 79.64 17.8511C79.8 19.0489 79.1711 20.2133 78.0778 20.7333L69.0333 25.0267L70.6956 35.72C70.88 36.9111 70.2756 38.0844 69.2 38.6289C68.8022 38.8289 68.3756 38.9244 67.9511 38.9244C67.2244 38.9244 66.5067 38.64 65.9711 38.0978L58.1667 30.1844L48.1267 34.9511C47.0378 35.4667 45.74 35.2244 44.9133 34.3467C44.0867 33.4689 43.9222 32.16 44.5022 31.1044L49.72 21.6222L42.6867 14.4933C41.8378 13.6333 41.6444 12.3222 42.2044 11.2511C42.7711 10.18 43.9689 9.6 45.1511 9.80667Z" fill="#E95F28"></path>
</svg><style>@media (prefers-color-scheme: light) { :root { filter: none; } }
@media (prefers-color-scheme: dark) { :root { filter: none; } }
</style></svg>