<svg width="492" height="80" viewBox="0 0 492 80" fill="none" xmlns="http://www.w3.org/2000/svg">
<path d="M124.165 67.8933V52.2773L110 17.888H126.171L130.565 30.7733L133.509 41.312L135.941 30.7733L139.269 17.888H151.984L139.483 52.0213V67.8933H124.165Z" fill="#252525"/>
<path d="M170.238 63.6693C171.49 63.6693 172.443 63.1573 173.097 62.1333C173.78 61.0809 174.121 59.6444 174.121 57.824V44.3413C174.121 38.7947 172.813 36.0213 170.196 36.0213C168.973 36.0213 168.02 36.5191 167.337 37.5147C166.654 38.5102 166.313 39.9182 166.313 41.7387V55.6053C166.313 60.9813 167.621 63.6693 170.238 63.6693ZM169.897 68.7893C163.383 68.7893 158.619 67.3102 155.604 64.352C152.589 61.3938 151.081 56.672 151.081 50.1867C151.081 43.7582 152.603 38.9227 155.646 35.68C158.69 32.4089 163.639 30.7733 170.494 30.7733C177.179 30.7733 182 32.3378 184.958 35.4667C187.945 38.5671 189.438 43.2747 189.438 49.5893C189.438 56.1316 187.86 60.9671 184.702 64.096C181.573 67.2249 176.638 68.7893 169.897 68.7893Z" fill="#252525"/>
<path d="M214.95 62.2187C214.78 62.6169 214.424 63.1431 213.884 63.7973C213.372 64.4516 212.689 65.1769 211.836 65.9733C210.982 66.7413 209.93 67.3956 208.678 67.936C207.427 68.5049 206.161 68.7893 204.881 68.7893C200.87 68.7893 197.997 67.5947 196.262 65.2053C194.556 62.816 193.702 58.8338 193.702 53.2587V38.0693L192.209 36.5333V31.6267H207.697V55.9467C207.669 57.2267 207.882 58.1796 208.337 58.8053C208.792 59.4027 209.617 59.7013 210.812 59.7013C210.982 59.7013 211.139 59.7013 211.281 59.7013C211.423 59.6729 211.565 59.6444 211.708 59.616C211.85 59.5591 211.964 59.5164 212.049 59.488C212.163 59.4596 212.291 59.4169 212.433 59.36C212.575 59.2747 212.689 59.2036 212.774 59.1467C212.86 59.0898 212.973 59.0187 213.116 58.9333C213.258 58.8196 213.357 58.7342 213.414 58.6773C213.5 58.6204 213.613 58.5351 213.756 58.4213C213.926 58.2791 214.054 58.1796 214.14 58.1227V38.0693L211.836 36.5333V31.6267H228.092V67.8933H216.273L214.95 62.2187Z" fill="#252525"/>
<path d="M247.743 67.8933H233.961V40.288L231.401 38.7093V33.888L240.575 31.6267H244.031L245.268 41.7813C246.434 34.8124 250.175 31.328 256.489 31.328C257.2 31.328 257.94 31.456 258.708 31.712L257.257 46.9013C256.66 46.3609 255.352 46.0907 253.332 46.0907C250.431 46.0907 248.568 46.8587 247.743 48.3947V67.8933Z" fill="#252525"/>
<path d="M299.393 67.8933H285.91L274.006 17.888H288.214L290.475 35.1253L293.846 51.8507L298.155 35.1253L299.265 30.56L295.979 17.888H309.931L313.003 35.1253L316.758 51.8507L319.105 35.1253L321.622 17.888H334.593L323.585 67.8933H309.035L303.787 47.7973L299.393 67.8933Z" fill="#252525"/>
<path d="M335.961 67.8933V40.288L333.401 38.7093V34.144L342.575 31.6267H349.7V67.8933H335.961ZM342.148 27.7013L335.151 20.6613V19.168L342.148 12.1707H343.769L351.065 19.168V20.6613L343.769 27.7013H342.148Z" fill="#252525"/>
<path d="M366.808 68.7893C364.134 68.7893 361.432 68.3484 358.701 67.4667C355.97 66.5564 354.221 65.6747 353.453 64.8213L354.562 57.952C355.529 58.8907 357.137 59.7013 359.384 60.384C361.659 61.0667 363.977 61.408 366.338 61.408C368.045 61.408 369.211 61.1947 369.837 60.768C370.491 60.3413 370.818 59.744 370.818 58.976C370.818 58.2364 370.249 57.5822 369.112 57.0133C367.974 56.416 366.125 55.7333 363.565 54.9653C356.937 52.9742 353.624 48.8498 353.624 42.592C353.624 40.032 354.363 37.8418 355.842 36.0213C357.321 34.1724 359.213 32.8356 361.517 32.0107C363.821 31.1858 366.395 30.7733 369.24 30.7733C374.104 30.7733 377.688 31.6693 379.992 33.4613C380.504 33.9449 380.76 34.1867 380.76 34.1867L378.882 40.288C377.005 38.4391 374.417 37.5147 371.117 37.5147C368.415 37.5147 367.064 38.3111 367.064 39.904C367.064 40.3591 367.163 40.7431 367.362 41.056C367.561 41.3404 367.889 41.5964 368.344 41.824C368.827 42.0231 369.297 42.1938 369.752 42.336C370.207 42.4498 370.847 42.6204 371.672 42.848C372.497 43.0471 373.208 43.232 373.805 43.4027C377.133 44.512 379.551 46.0764 381.058 48.096C382.566 50.1156 383.32 52.6329 383.32 55.648C383.32 64.4089 377.816 68.7893 366.808 68.7893Z" fill="#252525"/>
<path d="M400.188 67.8933H386.364V19.6373L383.804 18.1013V14.1333L397.5 12H400.273V37.1307L400.785 36.4907C401.127 36.0356 401.624 35.4951 402.279 34.8693C402.961 34.2436 403.715 33.632 404.54 33.0347C405.365 32.4089 406.346 31.8827 407.484 31.456C408.65 31.0009 409.788 30.7733 410.897 30.7733C414.794 30.7733 417.539 31.84 419.132 33.9733C420.753 36.1067 421.564 39.6764 421.564 44.6827C421.564 44.8533 421.564 45.1093 421.564 45.4507C421.536 45.792 421.521 46.0622 421.521 46.2613V67.8933H407.441V45.024C407.527 42.3502 406.389 41.0133 404.028 41.0133C403.8 41.0133 403.573 41.0276 403.345 41.056C403.146 41.0844 402.933 41.1556 402.705 41.2693C402.478 41.3831 402.293 41.4684 402.151 41.5253C402.037 41.5822 401.852 41.696 401.596 41.8667C401.368 42.0373 401.212 42.1511 401.127 42.208C401.07 42.2649 400.899 42.4071 400.615 42.6347C400.359 42.8622 400.216 42.9902 400.188 43.0187V67.8933Z" fill="#252525"/>
<path d="M445.994 45.8347C445.994 42.2222 445.809 39.6622 445.439 38.1547C445.069 36.6471 444.387 35.8933 443.391 35.8933C442.538 35.8933 441.841 36.0498 441.3 36.3627C440.76 36.6471 440.362 37.1164 440.106 37.7707C439.85 38.3964 439.679 39.0507 439.594 39.7333C439.537 40.3876 439.508 41.2267 439.508 42.2507V45.8347H445.994ZM442.58 68.7893C439.395 68.7893 436.621 68.3058 434.26 67.3387C431.928 66.3716 430.079 65.0204 428.714 63.2853C427.377 61.5502 426.395 59.6018 425.77 57.44C425.144 55.2498 424.831 52.8178 424.831 50.144C424.831 43.7724 426.452 38.9511 429.695 35.68C432.938 32.4089 437.475 30.7733 443.306 30.7733C448.909 30.7733 452.92 32.096 455.338 34.7413C457.755 37.3582 458.964 41.5822 458.964 47.4133V52.1493H439.466V52.96C439.466 54.6382 439.636 56.0178 439.978 57.0987C440.347 58.1796 440.874 58.976 441.556 59.488C442.239 60 442.936 60.3413 443.647 60.512C444.358 60.6827 445.226 60.768 446.25 60.768C447.245 60.768 448.312 60.64 449.45 60.384C450.616 60.128 451.782 59.7298 452.948 59.1893C454.143 58.6489 455.139 58.0089 455.935 57.2693L458.452 61.5787C457.4 63.2853 455.85 64.7218 453.802 65.888C451.782 67.0258 449.834 67.7938 447.956 68.192C446.079 68.5902 444.287 68.7893 442.58 68.7893Z" fill="#252525"/>
<path d="M474.808 68.7893C472.134 68.7893 469.432 68.3484 466.701 67.4667C463.97 66.5564 462.221 65.6747 461.453 64.8213L462.562 57.952C463.529 58.8907 465.137 59.7013 467.384 60.384C469.659 61.0667 471.977 61.408 474.338 61.408C476.045 61.408 477.211 61.1947 477.837 60.768C478.491 60.3413 478.818 59.744 478.818 58.976C478.818 58.2364 478.249 57.5822 477.112 57.0133C475.974 56.416 474.125 55.7333 471.565 54.9653C464.937 52.9742 461.624 48.8498 461.624 42.592C461.624 40.032 462.363 37.8418 463.842 36.0213C465.321 34.1724 467.213 32.8356 469.517 32.0107C471.821 31.1858 474.395 30.7733 477.24 30.7733C482.104 30.7733 485.688 31.6693 487.992 33.4613C488.504 33.9449 488.76 34.1867 488.76 34.1867L486.882 40.288C485.005 38.4391 482.417 37.5147 479.117 37.5147C476.415 37.5147 475.064 38.3111 475.064 39.904C475.064 40.3591 475.163 40.7431 475.362 41.056C475.561 41.3404 475.889 41.5964 476.344 41.824C476.827 42.0231 477.297 42.1938 477.752 42.336C478.207 42.4498 478.847 42.6204 479.672 42.848C480.497 43.0471 481.208 43.232 481.805 43.4027C485.133 44.512 487.551 46.0764 489.058 48.096C490.566 50.1156 491.32 52.6329 491.32 55.648C491.32 64.4089 485.816 68.7893 474.808 68.7893Z" fill="#252525"/>
<path d="M80 40C80 62.0911 62.0911 80 40 80C17.9089 80 0 62.0911 0 40C0 17.9089 17.9089 0 40 0C62.0911 0 80 17.9089 80 40Z" fill="#FFCC4D"/>
<path d="M40 46.6667C31.9489 46.6667 26.6067 45.7289 20 44.4444C18.4911 44.1533 15.5556 44.4444 15.5556 48.8889C15.5556 57.7778 25.7667 68.8889 40 68.8889C54.2311 68.8889 64.4444 57.7778 64.4444 48.8889C64.4444 44.4444 61.5089 44.1511 60 44.4444C53.3933 45.7289 48.0511 46.6667 40 46.6667Z" fill="#664500"/>
<path d="M20 48.8889C20 48.8889 26.6667 51.1111 40 51.1111C53.3333 51.1111 60 48.8889 60 48.8889C60 48.8889 55.5556 57.7778 40 57.7778C24.4444 57.7778 20 48.8889 20 48.8889Z" fill="white"/>
<path d="M34.8489 9.80667L24.7556 11.5867L19.5556 2.13556C18.9822 1.09333 17.8044 0.535556 16.64 0.74C15.4689 0.946667 14.5578 1.87556 14.3756 3.04889L12.72 13.7089L2.62667 15.4889C1.43778 15.6978 0.52 16.6556 0.357778 17.8533C0.195556 19.0511 0.826667 20.2156 1.92 20.7356L10.9644 25.0289L9.30222 35.7222C9.11778 36.9133 9.72222 38.0867 10.7978 38.6311C11.1956 38.8311 11.6222 38.9267 12.0467 38.9267C12.7733 38.9267 13.4911 38.6422 14.0267 38.1L21.8311 30.1867L31.8711 34.9533C32.96 35.4689 34.2578 35.2267 35.0844 34.3489C35.9111 33.4711 36.0756 32.1622 35.4956 31.1067L30.2778 21.6222L37.3111 14.4933C38.16 13.6333 38.3533 12.3222 37.7933 11.2511C37.2289 10.18 36.0311 9.6 34.8489 9.80667ZM45.1511 9.80667L55.2444 11.5867L60.4444 2.13556C61.0178 1.09333 62.1956 0.535556 63.36 0.74C64.5289 0.946667 65.44 1.87556 65.6222 3.04889L67.2778 13.7089L77.3711 15.4889C78.5622 15.6978 79.48 16.6533 79.64 17.8511C79.8 19.0489 79.1711 20.2133 78.0778 20.7333L69.0333 25.0267L70.6956 35.72C70.88 36.9111 70.2756 38.0844 69.2 38.6289C68.8022 38.8289 68.3756 38.9244 67.9511 38.9244C67.2244 38.9244 66.5067 38.64 65.9711 38.0978L58.1667 30.1844L48.1267 34.9511C47.0378 35.4667 45.74 35.2244 44.9133 34.3467C44.0867 33.4689 43.9222 32.16 44.5022 31.1044L49.72 21.6222L42.6867 14.4933C41.8378 13.6333 41.6444 12.3222 42.2044 11.2511C42.7711 10.18 43.9689 9.6 45.1511 9.80667Z" fill="#E95F28"/>
</svg>
